<svg width="16" height="15" viewBox="0 0 16 15" fill="none" xmlns="http://www.w3.org/2000/svg">
<path fill-rule="evenodd" clip-rule="evenodd" d="M6.73108 1.76301C7.12841 0.53082 8.87174 0.530819 9.26907 1.76301L10.3741 5.19003L13.9609 5.19003C15.2501 5.19003 15.7887 6.83767 14.7485 7.5992L11.838 9.72997L12.9477 13.1712C13.3443 14.4014 11.934 15.4198 10.8911 14.6562L8.00007 12.5397L5.1091 14.6562C4.06614 15.4198 2.6558 14.4014 3.05248 13.1712L4.16212 9.72997L1.25164 7.5992C0.211441 6.83767 0.750096 5.19003 2.03927 5.19003H5.62603L6.73108 1.76301ZM9.10513 5.59922L8.00007 2.1722L6.89502 5.59922C6.71741 6.15003 6.20476 6.52337 5.62603 6.52337H2.03927L4.94974 8.65413C5.4135 8.99365 5.6075 9.59213 5.43111 10.1392L4.32147 13.5804L7.21245 11.4639C7.68141 11.1206 8.31874 11.1206 8.7877 11.4639L11.6787 13.5804L10.569 10.1392C10.3927 9.59213 10.5867 8.99365 11.0504 8.65413L13.9609 6.52337H10.3741C9.79539 6.52337 9.28273 6.15003 9.10513 5.59922Z" fill="#FF9E2A"/>
</svg>
