<svg width="20" height="12" viewBox="0 0 20 12" fill="none" xmlns="http://www.w3.org/2000/svg">
<path d="M10.0042 7.92671L2.52195 0.444774C2.31642 0.238758 2.04163 0.125425 1.74862 0.125425C1.45545 0.125425 1.18081 0.238758 0.974959 0.444774L0.319675 1.10038C0.113496 1.30607 0 1.58103 0 1.87404C0 2.16705 0.113496 2.44168 0.319675 2.64753L9.22797 11.556C9.43447 11.7626 9.71041 11.8758 10.0037 11.875C10.2984 11.8758 10.574 11.7628 10.7807 11.556L19.6803 2.65583C19.8865 2.44997 20 2.17534 20 1.88217C20 1.58916 19.8865 1.31453 19.6803 1.10851L19.025 0.453067C18.5985 0.0265636 17.9042 0.0265636 17.4779 0.453067L10.0042 7.92671Z" fill="white"/>
</svg>
